<svg width="33" height="33" viewBox="0 0 33 33" fill="none" xmlns="http://www.w3.org/2000/svg">
<path fill-rule="evenodd" clip-rule="evenodd" d="M11.7305 1.375C7.59521 1.375 4.39567 4.99937 4.90859 9.10274L7.27221 28.0116C7.53024 30.0759 9.28502 31.625 11.3654 31.625H21.6351C23.7154 31.625 25.4702 30.0759 25.7282 28.0116L28.0918 9.10274C28.6047 4.99937 25.4052 1.375 21.2699 1.375H11.7305ZM7.83974 6.875C8.40236 5.28756 9.91635 4.125 11.7305 4.125H21.2699C23.0841 4.125 24.5981 5.28756 25.1607 6.875H7.83974ZM7.74528 9.625L10.001 27.6705C10.087 28.3586 10.6719 28.875 11.3654 28.875H21.6351C22.3285 28.875 22.9134 28.3586 22.9994 27.6705L25.2551 9.625H7.74528Z" fill="white"/>
<path d="M20.6279 15.1223C20.0909 14.5853 19.2203 14.5853 18.6834 15.1223L16.5002 17.3054L14.3278 15.133C13.7908 14.5961 12.9202 14.5961 12.3833 15.133C11.8463 15.67 11.8463 16.5406 12.3833 17.0776L14.5557 19.25L12.3752 21.4305C11.8382 21.9674 11.8382 22.838 12.3752 23.375C12.9122 23.912 13.7828 23.912 14.3198 23.375L16.5002 21.1945L18.6834 23.3777C19.2203 23.9146 20.0909 23.9146 20.6279 23.3777C21.1649 22.8407 21.1649 21.9701 20.6279 21.4331L18.4448 19.25L20.6279 17.0669C21.1649 16.5299 21.1649 15.6593 20.6279 15.1223Z" fill="white"/>
</svg>
