<svg width="34" height="33" viewBox="0 0 34 33" fill="none" xmlns="http://www.w3.org/2000/svg">
<path fill-rule="evenodd" clip-rule="evenodd" d="M32.125 5.5C32.125 3.22183 30.2782 1.375 28 1.375H6C3.72183 1.375 1.875 3.22183 1.875 5.5V27.5C1.875 29.7782 3.72183 31.625 6 31.625H28C30.2782 31.625 32.125 29.7782 32.125 27.5V5.5ZM29.375 5.5C29.375 4.74061 28.7594 4.125 28 4.125H6C5.24061 4.125 4.625 4.74061 4.625 5.5V27.5C4.625 28.2594 5.24061 28.875 6 28.875H28C28.7594 28.875 29.375 28.2594 29.375 27.5V5.5Z" fill="white"/>
<path d="M22.5 11C22.5 14.0376 20.0376 16.5 17 16.5C13.9624 16.5 11.5 14.0376 11.5 11C11.5 7.96243 13.9624 5.5 17 5.5C20.0376 5.5 22.5 7.96243 22.5 11ZM14.2186 11C14.2186 12.5361 15.4639 13.7814 17 13.7814C18.5361 13.7814 19.7814 12.5361 19.7814 11C19.7814 9.46387 18.5361 8.21859 17 8.21859C15.4639 8.21859 14.2186 9.46387 14.2186 11Z" fill="white"/>
<path fill-rule="evenodd" clip-rule="evenodd" d="M7.92375 22.9361C9.42395 19.0143 13.5228 17.875 17 17.875C20.4772 17.875 24.5761 19.0143 26.0763 22.9361C26.557 24.1928 26.1886 25.404 25.4374 26.232C24.7141 27.0292 23.6296 27.5 22.5 27.5H11.5C10.3704 27.5 9.28588 27.0292 8.56261 26.232C7.81138 25.404 7.44302 24.1928 7.92375 22.9361ZM17 20.625C13.8698 20.625 11.3612 21.647 10.4922 23.9186C10.4251 24.0941 10.4757 24.248 10.5993 24.3842C10.778 24.5812 11.1108 24.75 11.5 24.75H22.5C22.8892 24.75 23.222 24.5812 23.4007 24.3842C23.5243 24.248 23.5749 24.0941 23.5078 23.9186C22.6388 21.647 20.1302 20.625 17 20.625Z" fill="white"/>
</svg>
