<svg width="33" height="33" viewBox="0 0 33 33" fill="none" xmlns="http://www.w3.org/2000/svg">
<path fill-rule="evenodd" clip-rule="evenodd" d="M31.625 30.25C31.625 31.0094 31.0094 31.625 30.25 31.625H2.75C1.99061 31.625 1.375 31.0094 1.375 30.25C1.375 29.4906 1.99061 28.875 2.75 28.875H30.25C31.0094 28.875 31.625 29.4906 31.625 30.25Z" fill="white"/>
<path fill-rule="evenodd" clip-rule="evenodd" d="M18.3011 25.6961C17.2675 26.5919 15.7326 26.5919 14.699 25.6961L8.07245 19.9531C6.14871 18.2859 7.32783 15.125 9.87351 15.125L12.375 15.125V4.125C12.375 2.60622 13.6062 1.375 15.125 1.375L17.875 1.375C19.3938 1.375 20.625 2.60622 20.625 4.125L20.625 15.125H23.1265C25.6722 15.125 26.8513 18.2859 24.9276 19.9531L18.3011 25.6961ZM15.5995 22.8375C16.1163 23.2854 16.8837 23.2854 17.4005 22.8375L23.1265 17.875H19.9375C18.7984 17.875 17.875 16.9516 17.875 15.8125V4.125L15.125 4.125V15.8125C15.125 16.9516 14.2016 17.875 13.0625 17.875L9.87351 17.875L15.5995 22.8375Z" fill="white"/>
</svg>
