<svg width="41" height="41" viewBox="0 0 40 41" fill="none" xmlns="http://www.w3.org/2000/svg">
<path d="M20 4.25C16.7861 4.25 13.6443 5.20305 10.972 6.98862C8.29969 8.77419 6.21689 11.3121 4.98696 14.2814C3.75704 17.2507 3.43524 20.518 4.06225 23.6702C4.68926 26.8224 6.23692 29.7179 8.50952 31.9905C10.7821 34.2631 13.6776 35.8108 16.8298 36.4378C19.982 37.0648 23.2493 36.743 26.2186 35.513C29.1879 34.2831 31.7258 32.2003 33.5114 29.528C35.297 26.8557 36.25 23.7139 36.25 20.5C36.2455 16.1916 34.5319 12.061 31.4855 9.01454C28.439 5.96806 24.3084 4.25455 20 4.25ZM20 34.25C17.2805 34.25 14.6221 33.4436 12.3609 31.9327C10.0997 30.4218 8.33737 28.2744 7.29666 25.7619C6.25596 23.2494 5.98366 20.4847 6.51421 17.8175C7.04476 15.1503 8.35432 12.7003 10.2773 10.7773C12.2003 8.85431 14.6503 7.54475 17.3175 7.0142C19.9848 6.48366 22.7494 6.75595 25.2619 7.79666C27.7744 8.83736 29.9218 10.5997 31.4327 12.8609C32.9436 15.1221 33.75 17.7805 33.75 20.5C33.7459 24.1455 32.2959 27.6404 29.7182 30.2182C27.1404 32.7959 23.6455 34.2459 20 34.25ZM24.6344 19.6156C24.7506 19.7317 24.8428 19.8696 24.9057 20.0213C24.9686 20.1731 25.001 20.3357 25.001 20.5C25.001 20.6643 24.9686 20.8269 24.9057 20.9787C24.8428 21.1304 24.7506 21.2683 24.6344 21.3844L18.3844 27.6344C18.2682 27.7505 18.1304 27.8426 17.9786 27.9055C17.8269 27.9683 17.6643 28.0007 17.5 28.0007C17.3358 28.0007 17.1731 27.9683 17.0214 27.9055C16.8696 27.8426 16.7318 27.7505 16.6156 27.6344C16.4995 27.5182 16.4074 27.3804 16.3445 27.2286C16.2817 27.0769 16.2493 26.9142 16.2493 26.75C16.2493 26.5858 16.2817 26.4231 16.3445 26.2714C16.4074 26.1196 16.4995 25.9818 16.6156 25.8656L21.9828 20.5L16.6156 15.1344C16.3811 14.8998 16.2493 14.5817 16.2493 14.25C16.2493 13.9183 16.3811 13.6002 16.6156 13.3656C16.8502 13.1311 17.1683 12.9993 17.5 12.9993C17.8317 12.9993 18.1498 13.1311 18.3844 13.3656L24.6344 19.6156Z" fill="white"/>
</svg>
