<svg width="21" height="20" viewBox="0 0 21 20" fill="none" xmlns="http://www.w3.org/2000/svg">
<path d="M20.2081 18.2926C20.301 18.3855 20.3747 18.4958 20.4249 18.6172C20.4752 18.7386 20.5011 18.8687 20.5011 19.0001C20.5011 19.1315 20.4752 19.2616 20.4249 19.383C20.3747 19.5044 20.301 19.6147 20.2081 19.7076C20.1151 19.8005 20.0048 19.8742 19.8835 19.9245C19.7621 19.9747 19.632 20.0006 19.5006 20.0006C19.3692 20.0006 19.2391 19.9747 19.1177 19.9245C18.9963 19.8742 18.886 19.8005 18.7931 19.7076L10.5006 11.4138L2.20806 19.7076C2.02042 19.8952 1.76592 20.0006 1.50056 20.0006C1.23519 20.0006 0.980697 19.8952 0.793056 19.7076C0.605415 19.5199 0.5 19.2654 0.5 19.0001C0.5 18.7347 0.605415 18.4802 0.793056 18.2926L9.08681 10.0001L0.793056 1.70757C0.605415 1.51993 0.5 1.26543 0.5 1.00007C0.5 0.734704 0.605415 0.480208 0.793056 0.292568C0.980697 0.104927 1.23519 -0.000488281 1.50056 -0.000488281C1.76592 -0.000488281 2.02042 0.104927 2.20806 0.292568L10.5006 8.58632L18.7931 0.292568C18.9807 0.104927 19.2352 -0.000488286 19.5006 -0.000488281C19.7659 -0.000488276 20.0204 0.104927 20.2081 0.292568C20.3957 0.480208 20.5011 0.734704 20.5011 1.00007C20.5011 1.26543 20.3957 1.51993 20.2081 1.70757L11.9143 10.0001L20.2081 18.2926Z" fill="#343330"/>
</svg>
