<svg width="29" height="26" viewBox="0 0 29 26" fill="none" xmlns="http://www.w3.org/2000/svg">
<path d="M28.1001 21.0111L17.1689 2.02734C16.8957 1.56224 16.5057 1.17661 16.0376 0.908664C15.5695 0.640716 15.0395 0.499756 14.5001 0.499756C13.9607 0.499756 13.4307 0.640716 12.9626 0.908664C12.4945 1.17661 12.1045 1.56224 11.8314 2.02734L0.90012 21.0111C0.63729 21.4609 0.498779 21.9726 0.498779 22.4936C0.498779 23.0146 0.63729 23.5262 0.90012 23.9761C1.16978 24.444 1.55908 24.8317 2.02807 25.0995C2.49706 25.3673 3.02885 25.5054 3.56887 25.4998H25.4314C25.971 25.505 26.5022 25.3666 26.9707 25.0989C27.4393 24.8311 27.8282 24.4436 28.0976 23.9761C28.3608 23.5265 28.4998 23.0149 28.5002 22.4939C28.5007 21.9729 28.3626 21.4612 28.1001 21.0111ZM26.3664 22.9748C26.2711 23.1374 26.1343 23.2717 25.97 23.3639C25.8057 23.4562 25.6198 23.5031 25.4314 23.4998H3.56887C3.38047 23.5031 3.19458 23.4562 3.03028 23.3639C2.86598 23.2717 2.72917 23.1374 2.63387 22.9748C2.54755 22.8287 2.50202 22.6621 2.50202 22.4923C2.50202 22.3226 2.54755 22.156 2.63387 22.0098L13.5651 3.02609C13.6623 2.8643 13.7998 2.73043 13.9641 2.63749C14.1283 2.54455 14.3139 2.49571 14.5026 2.49571C14.6914 2.49571 14.8769 2.54455 15.0412 2.63749C15.2055 2.73043 15.3429 2.8643 15.4401 3.02609L26.3714 22.0098C26.4569 22.1564 26.5016 22.3233 26.5007 22.493C26.4998 22.6628 26.4534 22.8291 26.3664 22.9748ZM13.5001 15.4998V10.4998C13.5001 10.2346 13.6055 9.98027 13.793 9.79273C13.9805 9.60519 14.2349 9.49984 14.5001 9.49984C14.7653 9.49984 15.0197 9.60519 15.2072 9.79273C15.3948 9.98027 15.5001 10.2346 15.5001 10.4998V15.4998C15.5001 15.7651 15.3948 16.0194 15.2072 16.2069C15.0197 16.3945 14.7653 16.4998 14.5001 16.4998C14.2349 16.4998 13.9805 16.3945 13.793 16.2069C13.6055 16.0194 13.5001 15.7651 13.5001 15.4998ZM16.0001 19.9998C16.0001 20.2965 15.9121 20.5865 15.7473 20.8332C15.5825 21.0799 15.3482 21.2721 15.0741 21.3857C14.8001 21.4992 14.4985 21.5289 14.2075 21.471C13.9165 21.4131 13.6492 21.2703 13.4395 21.0605C13.2297 20.8507 13.0868 20.5834 13.0289 20.2925C12.9711 20.0015 13.0008 19.6999 13.1143 19.4258C13.2278 19.1517 13.4201 18.9175 13.6668 18.7526C13.9134 18.5878 14.2034 18.4998 14.5001 18.4998C14.8979 18.4998 15.2795 18.6579 15.5608 18.9392C15.8421 19.2205 16.0001 19.602 16.0001 19.9998Z" fill="#A92525"/>
</svg>
