<svg width="21" height="20" viewBox="0 0 21 20" fill="none" xmlns="http://www.w3.org/2000/svg">
<path d="M20.2076 18.2926C20.3005 18.3855 20.3742 18.4958 20.4245 18.6172C20.4747 18.7386 20.5006 18.8687 20.5006 19.0001C20.5006 19.1315 20.4747 19.2616 20.4245 19.383C20.3742 19.5044 20.3005 19.6147 20.2076 19.7076C20.1147 19.8005 20.0044 19.8742 19.883 19.9245C19.7616 19.9747 19.6315 20.0006 19.5001 20.0006C19.3687 20.0006 19.2386 19.9747 19.1172 19.9245C18.9958 19.8742 18.8855 19.8005 18.7926 19.7076L10.5001 11.4138L2.20757 19.7076C2.01993 19.8952 1.76543 20.0006 1.50007 20.0006C1.2347 20.0006 0.980208 19.8952 0.792568 19.7076C0.604927 19.5199 0.499512 19.2654 0.499512 19.0001C0.499512 18.7347 0.604927 18.4802 0.792568 18.2926L9.08632 10.0001L0.792568 1.70757C0.604927 1.51993 0.499512 1.26543 0.499512 1.00007C0.499512 0.734704 0.604927 0.480208 0.792568 0.292568C0.980208 0.104927 1.2347 -0.000488281 1.50007 -0.000488281C1.76543 -0.000488281 2.01993 0.104927 2.20757 0.292568L10.5001 8.58632L18.7926 0.292568C18.9802 0.104927 19.2347 -0.000488286 19.5001 -0.000488281C19.7654 -0.000488276 20.0199 0.104927 20.2076 0.292568C20.3952 0.480208 20.5006 0.734704 20.5006 1.00007C20.5006 1.26543 20.3952 1.51993 20.2076 1.70757L11.9138 10.0001L20.2076 18.2926Z" fill="#343330"/>
</svg>
