<svg width="27" height="26" viewBox="0 0 27 26" fill="none" xmlns="http://www.w3.org/2000/svg">
<path d="M19.2069 9.2925C19.2999 9.38537 19.3736 9.49566 19.424 9.61706C19.4743 9.73846 19.5002 9.86858 19.5002 10C19.5002 10.1314 19.4743 10.2615 19.424 10.3829C19.3736 10.5043 19.2999 10.6146 19.2069 10.7075L12.2069 17.7075C12.114 17.8005 12.0037 17.8742 11.8823 17.9246C11.7609 17.9749 11.6308 18.0008 11.4994 18.0008C11.368 18.0008 11.2379 17.9749 11.1165 17.9246C10.9951 17.8742 10.8848 17.8005 10.7919 17.7075L7.79189 14.7075C7.60425 14.5199 7.49884 14.2654 7.49884 14C7.49884 13.7346 7.60425 13.4801 7.79189 13.2925C7.97954 13.1049 8.23403 12.9994 8.4994 12.9994C8.76476 12.9994 9.01926 13.1049 9.2069 13.2925L11.4994 15.5863L17.7919 9.2925C17.8848 9.19952 17.9951 9.12576 18.1165 9.07544C18.2379 9.02512 18.368 8.99921 18.4994 8.99921C18.6308 8.99921 18.7609 9.02512 18.8823 9.07544C19.0037 9.12576 19.114 9.19952 19.2069 9.2925ZM26.4994 13C26.4994 15.5712 25.737 18.0846 24.3085 20.2224C22.88 22.3603 20.8497 24.0265 18.4743 25.0104C16.0988 25.9944 13.485 26.2518 10.9632 25.7502C8.44147 25.2486 6.12509 24.0105 4.30701 22.1924C2.48892 20.3743 1.25079 18.0579 0.749187 15.5362C0.247579 13.0144 0.505022 10.4006 1.48896 8.02512C2.4729 5.64968 4.13914 3.61935 6.27698 2.1909C8.41482 0.762437 10.9282 0 13.4994 0C16.9461 0.00363977 20.2506 1.37445 22.6878 3.81163C25.1249 6.24882 26.4958 9.5533 26.4994 13ZM24.4994 13C24.4994 10.8244 23.8543 8.69767 22.6456 6.88873C21.4369 5.07979 19.7189 3.66989 17.7089 2.83733C15.6989 2.00476 13.4872 1.78692 11.3534 2.21136C9.21961 2.6358 7.2596 3.68345 5.72122 5.22183C4.18284 6.7602 3.13519 8.72022 2.71076 10.854C2.28632 12.9878 2.50416 15.1995 3.33672 17.2095C4.16928 19.2195 5.57918 20.9375 7.38812 22.1462C9.19706 23.3549 11.3238 24 13.4994 24C16.4158 23.9967 19.2117 22.8367 21.2739 20.7745C23.3361 18.7123 24.4961 15.9164 24.4994 13Z" fill="#115424"/>
</svg>
