<svg width="34" height="33" viewBox="0 0 34 33" fill="none" xmlns="http://www.w3.org/2000/svg">
<path d="M20.5391 1.52702L19.4511 3.70309C19.4245 3.75631 19.3813 3.79947 19.3281 3.82608L17.152 4.91411C16.9493 5.01546 16.9493 5.3047 17.152 5.40605L19.3281 6.49409C19.3813 6.5207 19.4245 6.56385 19.4511 6.61707L20.5391 8.79315C20.6405 8.99584 20.9297 8.99584 21.031 8.79315L22.1191 6.61707C22.1457 6.56385 22.1889 6.5207 22.2421 6.49409L24.4181 5.40605C24.6208 5.3047 24.6208 5.01546 24.4181 4.91411L22.2421 3.82608C22.1889 3.79947 22.1457 3.75631 22.1191 3.70309L21.031 1.52702C20.9297 1.32433 20.6405 1.32433 20.5391 1.52702Z" fill="black"/>
<path d="M26.9577 6.97432L25.887 10.1862C25.8597 10.2683 25.7952 10.3328 25.7131 10.3601L22.5012 11.4308C22.2505 11.5143 22.2505 11.869 22.5012 11.9525L25.7131 13.0232C25.7952 13.0505 25.8597 13.115 25.887 13.1971L26.9577 16.409C27.0412 16.6597 27.3959 16.6597 27.4794 16.409L28.5501 13.1971C28.5774 13.115 28.6419 13.0505 28.724 13.0232L31.9359 11.9525C32.1866 11.869 32.1866 11.5143 31.9359 11.4308L28.724 10.3601C28.6419 10.3328 28.5774 10.2683 28.5501 10.1862L27.4794 6.97432C27.3959 6.7236 27.0412 6.7236 26.9577 6.97432Z" fill="black"/>
<path fill-rule="evenodd" clip-rule="evenodd" d="M14.8103 18.7883C18.6979 22.6759 24.7711 23.0124 28.9132 19.7591C28.9645 19.7188 29.0155 19.678 29.0661 19.6366C29.2578 19.4801 29.4451 19.3158 29.6277 19.1436C29.7017 19.0737 29.775 19.0026 29.8474 18.9301C30.5516 18.226 31.9962 18.6419 31.7836 19.6148C31.7101 19.951 31.6252 20.2836 31.5292 20.6119C31.4723 20.8067 31.4115 21 31.3469 21.1917C31.3293 21.2441 31.3113 21.2964 31.2931 21.3485C29.2343 27.2445 23.5843 31.6254 17 31.6254C8.64669 31.6254 1.875 24.8537 1.875 16.5004C1.875 9.80808 6.39993 4.10105 12.4197 2.12096L12.4934 2.09693C12.6254 2.05426 12.7582 2.01338 12.8916 1.97432C13.2457 1.87063 13.6046 1.77977 13.9677 1.70226C14.9897 1.48409 15.4074 3.01226 14.6685 3.75121C14.5952 3.82452 14.5232 3.89865 14.4525 3.9736C14.3127 4.12193 14.178 4.27342 14.0486 4.42782C14.0202 4.46167 13.9921 4.49566 13.9642 4.52979C10.5783 8.67411 10.8738 14.8517 14.8103 18.7883ZM12.8658 20.7328C16.6216 24.4887 22.0495 25.6161 26.7449 24.0203C24.4636 26.9533 20.9188 28.8754 17 28.8754C10.1655 28.8754 4.625 23.3349 4.625 16.5004C4.625 12.501 6.62773 8.89846 9.65829 6.62538C7.94657 11.3722 9.04892 16.9159 12.8658 20.7328Z" fill="black"/>
</svg>
