<svg width="36" height="36" viewBox="0 0 36 36" fill="none" xmlns="http://www.w3.org/2000/svg">
<path d="M24.4209 13.8291C24.5255 13.9335 24.6085 14.0576 24.6651 14.1942C24.7218 14.3308 24.7509 14.4772 24.7509 14.625C24.7509 14.7728 24.7218 14.9192 24.6651 15.0558C24.6085 15.1924 24.5255 15.3165 24.4209 15.4209L16.5459 23.2959C16.4415 23.4005 16.3174 23.4835 16.1808 23.5401C16.0442 23.5967 15.8978 23.6259 15.75 23.6259C15.6022 23.6259 15.4558 23.5967 15.3192 23.5401C15.1826 23.4835 15.0586 23.4005 14.9541 23.2959L11.5791 19.9209C11.368 19.7098 11.2494 19.4235 11.2494 19.125C11.2494 18.8265 11.368 18.5402 11.5791 18.3291C11.7902 18.118 12.0765 17.9994 12.375 17.9994C12.6735 17.9994 12.9598 18.118 13.1709 18.3291L15.75 20.9095L22.8291 13.8291C22.9336 13.7245 23.0576 13.6415 23.1942 13.5849C23.3308 13.5283 23.4772 13.4991 23.625 13.4991C23.7728 13.4991 23.9192 13.5283 24.0558 13.5849C24.1924 13.6415 24.3165 13.7245 24.4209 13.8291ZM32.625 18C32.625 20.8926 31.7673 23.7201 30.1602 26.1252C28.5532 28.5303 26.2691 30.4048 23.5968 31.5117C20.9244 32.6187 17.9838 32.9083 15.1468 32.344C12.3098 31.7797 9.70391 30.3868 7.65857 28.3414C5.61323 26.2961 4.22033 23.6902 3.65602 20.8532C3.09171 18.0162 3.38134 15.0756 4.48827 12.4033C5.5952 9.73089 7.46972 7.44677 9.87479 5.83976C12.2799 4.23274 15.1075 3.375 18 3.375C21.8775 3.37909 25.5951 4.92125 28.3369 7.66309C31.0788 10.4049 32.6209 14.1225 32.625 18ZM30.375 18C30.375 15.5525 29.6492 13.1599 28.2894 11.1248C26.9297 9.08976 24.997 7.50363 22.7357 6.56699C20.4745 5.63036 17.9863 5.38529 15.5858 5.86278C13.1852 6.34027 10.9802 7.51888 9.24956 9.24955C7.51889 10.9802 6.34028 13.1852 5.86279 15.5858C5.3853 17.9863 5.63036 20.4745 6.567 22.7357C7.50363 24.9969 9.08977 26.9297 11.1248 28.2894C13.1599 29.6492 15.5525 30.375 18 30.375C21.2809 30.3713 24.4264 29.0663 26.7463 26.7463C29.0663 24.4264 30.3713 21.2809 30.375 18Z" fill="#115424"/>
</svg>
