<svg width="43" height="44" viewBox="0 0 43 44" fill="none" xmlns="http://www.w3.org/2000/svg">
<path d="M34.5442 33.1428C34.6691 33.2677 34.7681 33.4159 34.8357 33.579C34.9032 33.7421 34.938 33.917 34.938 34.0935C34.938 34.2701 34.9032 34.4449 34.8357 34.608C34.7681 34.7712 34.6691 34.9194 34.5442 35.0442C34.4194 35.1691 34.2712 35.2681 34.108 35.3357C33.9449 35.4032 33.7701 35.438 33.5935 35.438C33.417 35.438 33.2421 35.4032 33.079 35.3357C32.9159 35.2681 32.7677 35.1691 32.6428 35.0442L21.4998 23.8995L10.3567 35.0442C10.1046 35.2964 9.7626 35.438 9.40602 35.438C9.04944 35.438 8.70746 35.2964 8.45532 35.0442C8.20318 34.7921 8.06152 34.4501 8.06152 34.0935C8.06152 33.7369 8.20318 33.395 8.45532 33.1428L19.6 21.9998L8.45532 10.8567C8.20318 10.6046 8.06152 10.2626 8.06152 9.90602C8.06152 9.54944 8.20318 9.20746 8.45532 8.95532C8.70746 8.70318 9.04944 8.56152 9.40602 8.56152C9.7626 8.56152 10.1046 8.70318 10.3567 8.95532L21.4998 20.1L32.6428 8.95532C32.895 8.70318 33.2369 8.56152 33.5935 8.56152C33.9501 8.56152 34.2921 8.70318 34.5442 8.95532C34.7964 9.20746 34.938 9.54944 34.938 9.90602C34.938 10.2626 34.7964 10.6046 34.5442 10.8567L23.3995 21.9998L34.5442 33.1428Z" fill="#343330"/>
</svg>
