<svg width="34" height="33" viewBox="0 0 34 33" fill="none" xmlns="http://www.w3.org/2000/svg">
<path d="M32.5834 16.5C32.5834 24.8533 25.6065 31.625 17.0001 31.625C8.39365 31.625 1.41675 24.8533 1.41675 16.5C1.41675 8.14669 8.39365 1.375 17.0001 1.375C25.6065 1.375 32.5834 8.14669 32.5834 16.5ZM4.25976 16.5C4.25976 23.3293 9.9638 28.8656 17.0001 28.8656C24.0364 28.8656 29.7404 23.3293 29.7404 16.5C29.7404 9.67066 24.0364 4.13439 17.0001 4.13439C9.9638 4.13439 4.25976 9.67066 4.25976 16.5Z" fill="white"/>
<path d="M19.1251 24.75C19.1251 25.8891 18.1737 26.8125 17.0001 26.8125C15.8265 26.8125 14.8751 25.8891 14.8751 24.75C14.8751 23.6109 15.8265 22.6875 17.0001 22.6875C18.1737 22.6875 19.1251 23.6109 19.1251 24.75Z" fill="white"/>
<path d="M15.5834 16.5V19.25C15.5834 19.25 15.5834 20.625 17.0001 20.625C18.4167 20.625 18.4167 19.25 18.4167 19.25V16.5C18.4167 16.5 19.0956 16.3114 19.3559 16.209C19.3559 16.209 19.8291 16.045 20.1603 15.7982C20.4915 15.5515 20.7912 15.2584 21.0594 14.9191C21.3433 14.5798 21.5641 14.1866 21.7218 13.7393C21.8795 13.292 21.9584 12.9302 21.9584 12.375C21.9584 11.4496 21.7455 10.5005 21.3196 9.8065C20.9095 9.09706 20.3259 8.54955 19.5688 8.16399C18.8117 7.763 17.9284 7.5625 16.919 7.5625C16.288 7.5625 15.7281 7.63961 15.2391 7.79384C14.7502 7.93265 14.3164 8.12543 13.9379 8.37219C13.5751 8.60353 13.2675 8.86572 13.0152 9.15875C12.7786 9.43636 12.5893 9.70626 12.4473 9.96844C12.3054 10.2306 12.2107 10.462 12.1634 10.6625C12.0688 10.9555 12.0293 11.1945 12.0451 11.3796C12.0767 11.5647 12.1713 11.7189 12.329 11.8423C12.4868 11.9657 12.7312 12.0968 13.0625 12.2356C13.4095 12.3435 13.6776 12.3821 13.8669 12.3512C14.0719 12.3204 14.2376 12.2279 14.3637 12.0736C14.3637 12.0736 15.0363 11.1453 15.2256 10.9603C15.4307 10.7598 15.683 10.6055 15.9827 10.4976C16.2824 10.3742 16.6215 10.3125 17.0001 10.3125C17.8203 10.3125 18.4275 10.5053 18.8219 10.8909C19.2319 11.261 19.3559 11.5724 19.3559 12.2818C19.3559 12.76 19.2691 13.1455 19.0956 13.4386C18.9221 13.7316 18.6934 13.9706 18.4095 14.1557C18.4095 14.1557 18.0239 14.2987 17.7084 14.4375C17.4087 14.5609 16.8586 14.7649 16.5747 14.9191C16.3065 15.0579 16.1562 15.2038 15.9827 15.4197C15.8092 15.6357 15.5834 16.1299 15.5834 16.5Z" fill="white"/>
</svg>
